<svg xmlns="http://www.w3.org/2000/svg" width="88" height="88" viewBox="0 0 480 460" version="1.1"><path d="M 236 50.461 L 236 58.922 227.250 59.255 L 218.500 59.589 227.750 59.794 L 237 60 237 51 C 237 46.050, 236.775 42, 236.500 42 C 236.225 42, 236 45.807, 236 50.461 M 241.206 50.750 L 241 60 250.250 59.794 L 259.500 59.589 250.788 59.256 L 242.077 58.923 241.744 50.212 L 241.411 41.500 241.206 50.750 M 227.712 64.743 L 235.923 65.080 236.256 73.790 L 236.589 82.500 236.794 73.250 L 237 64 228.250 64.204 L 219.500 64.407 227.712 64.743 M 241.206 73.250 L 241.411 82.500 241.744 73.788 L 242.077 65.077 250.788 64.744 L 259.500 64.411 250.250 64.206 L 241 64 241.206 73.250 M 403.946 171.750 L 400.500 175.500 404.250 172.054 C 406.313 170.158, 408 168.471, 408 168.304 C 408 167.540, 407.154 168.260, 403.946 171.750 M 439 171.500 C 440.866 173.425, 442.617 175, 442.892 175 C 443.167 175, 441.866 173.425, 440 171.500 C 438.134 169.575, 436.383 168, 436.108 168 C 435.833 168, 437.134 169.575, 439 171.500 M 404 206.500 C 405.866 208.425, 407.617 210, 407.892 210 C 408.167 210, 406.866 208.425, 405 206.500 C 403.134 204.575, 401.383 203, 401.108 203 C 400.833 203, 402.134 204.575, 404 206.500 M 438.946 206.750 L 435.500 210.500 439.250 207.054 C 441.313 205.158, 443 203.471, 443 203.304 C 443 202.540, 442.154 203.260, 438.946 206.750" stroke="none" fill="#cbb7fc" fill-rule="evenodd"/><path d="M 213.377 26.674 L 189.254 44.233 192.471 54.367 C 194.240 59.940, 198.522 73.162, 201.987 83.750 L 208.286 103 238.986 103 L 269.687 103 274.004 89.750 C 276.379 82.463, 280.656 69.256, 283.509 60.402 L 288.697 44.304 264.415 26.652 C 251.060 16.943, 239.541 9.026, 238.817 9.057 C 238.093 9.088, 226.645 17.016, 213.377 26.674 M 219 51 L 219 60 228 60 L 237 60 237 51 L 237 42 228 42 L 219 42 219 51 M 241 51 L 241 60 250 60 L 259 60 259 51 L 259 42 250 42 L 241 42 241 51 M 219.667 64.667 C 219.300 65.033, 219 69.083, 219 73.667 L 219 82 228 82 L 237 82 237 73 L 237 64 228.667 64 C 224.083 64, 220.033 64.300, 219.667 64.667 M 241 73 L 241 82 250 82 L 259 82 259 73 L 259 64 250 64 L 241 64 241 73 M 190.263 91.316 C 186.988 93.525, 186.179 95.374, 187.994 96.496 C 189.262 97.280, 196.186 92.057, 195.722 90.667 C 195.125 88.876, 193.614 89.055, 190.263 91.316 M 282.667 89.667 C 281.451 90.883, 281.967 91.737, 285.585 94.497 C 288.355 96.610, 289.434 96.959, 290.335 96.033 C 291.228 95.115, 290.693 94.155, 288.038 91.918 C 284.401 88.853, 283.752 88.581, 282.667 89.667 M 173.157 103.812 C 170.357 106.148, 170.045 106.792, 171.237 107.782 C 172.366 108.719, 173.368 108.441, 176.080 106.441 C 177.961 105.053, 179.500 103.380, 179.500 102.723 C 179.500 100.498, 176.516 101.010, 173.157 103.812 M 298.667 101.667 C 297.422 102.911, 297.993 103.730, 301.913 106.324 C 305.177 108.484, 306.017 108.685, 306.973 107.533 C 307.884 106.435, 307.344 105.626, 304.327 103.576 C 300.272 100.821, 299.704 100.629, 298.667 101.667 M 159.085 114.132 C 157.762 115.203, 155.986 116.468, 155.137 116.943 C 153.855 117.661, 153.815 118.072, 154.898 119.377 C 156.066 120.784, 156.556 120.677, 159.601 118.355 C 162.845 115.881, 163.875 113.659, 162.245 112.651 C 161.830 112.395, 160.408 113.061, 159.085 114.132 M 315.329 113.586 C 314.872 114.775, 315.702 116.130, 318.088 118.088 C 321.041 120.513, 321.694 120.698, 322.940 119.468 C 323.733 118.687, 324.183 117.906, 323.940 117.733 C 323.698 117.561, 321.808 116.174, 319.741 114.652 C 316.402 112.194, 315.909 112.075, 315.329 113.586 M 141.672 126.707 C 137.858 129.420, 137.292 130.445, 139.018 131.511 C 140.389 132.358, 147 128.189, 147 126.477 C 147 123.996, 145.384 124.065, 141.672 126.707 M 331.631 124.702 C 330.285 126.048, 331.151 127.594, 334.549 129.908 C 337.317 131.793, 338.347 132.052, 339.292 131.104 C 340.237 130.156, 339.955 129.461, 338 127.918 C 334.275 124.976, 332.337 123.997, 331.631 124.702 M 30.376 153.663 L 6.251 171.223 9.469 181.362 C 11.240 186.938, 15.522 200.162, 18.987 210.750 L 25.286 230 40.810 230 C 49.348 230, 56.073 230.261, 55.754 230.579 C 54.769 231.565, 58.151 240.117, 59.360 239.695 C 60.618 239.256, 60.676 236.944, 59.533 232.750 L 58.783 230 72.735 230 L 86.687 230 91.004 216.750 C 93.379 209.463, 97.664 196.232, 100.527 187.348 L 105.732 171.196 101.366 168.119 C 97.212 165.191, 95.787 163, 98.035 163 C 98.723 163, 98.697 162.302, 97.956 160.917 C 96.904 158.952, 96.735 158.930, 94.974 160.524 C 93.194 162.134, 92.269 161.601, 75.146 149.107 C 65.267 141.898, 56.581 136.023, 55.843 136.051 C 55.104 136.080, 43.644 144.005, 30.376 153.663 M 124.973 138.909 C 122.248 141.206, 121.759 142.102, 122.704 143.072 C 123.656 144.049, 124.661 143.733, 127.507 141.563 C 130.896 138.977, 131.600 137.033, 129.411 136.304 C 128.880 136.127, 126.883 137.299, 124.973 138.909 M 347.667 136.667 C 346.421 137.912, 346.994 138.894, 350.546 141.603 C 353.350 143.742, 354.344 144.049, 355.296 143.072 C 356.241 142.102, 355.755 141.207, 353.038 138.918 C 349.401 135.853, 348.752 135.581, 347.667 136.667 M 402.745 149.054 C 386.750 160.727, 384.789 161.886, 382.965 160.755 C 381.294 159.720, 380.777 159.760, 380.015 160.986 C 379.375 162.013, 379.561 162.735, 380.618 163.326 C 381.827 164.003, 381.110 164.906, 377.184 167.655 L 372.221 171.129 375.455 181.314 C 377.233 186.916, 381.522 200.162, 384.987 210.750 L 391.286 230 405.251 230 L 419.217 230 418.616 232.250 C 418.286 233.488, 417.751 235.450, 417.427 236.612 C 417.045 237.986, 417.366 238.926, 418.346 239.302 C 419.439 239.722, 420.261 238.683, 421.339 235.519 C 422.156 233.121, 422.564 230.898, 422.246 230.579 C 421.927 230.261, 428.646 230, 437.177 230 L 452.687 230 457.004 216.750 C 459.379 209.463, 463.656 196.256, 466.509 187.402 L 471.697 171.304 447.415 153.652 C 434.060 143.943, 422.541 136.022, 421.817 136.049 C 421.093 136.075, 412.510 141.928, 402.745 149.054 M 108.673 150.576 C 105.612 152.656, 105.107 153.425, 106.054 154.565 C 106.699 155.342, 107.738 155.674, 108.363 155.303 C 112.428 152.890, 114.767 150.557, 114.312 149.372 C 113.592 147.494, 113.033 147.614, 108.673 150.576 M 363.688 149.372 C 363.233 150.557, 365.572 152.890, 369.637 155.303 C 370.262 155.674, 371.277 155.371, 371.893 154.629 C 372.769 153.573, 372.186 152.708, 369.202 150.640 C 364.819 147.603, 364.403 147.507, 363.688 149.372 M 44 170.607 C 37.675 175.266, 31.954 179.622, 31.286 180.288 C 30.334 181.238, 31.100 184.739, 34.834 196.500 L 39.597 211.500 56.248 211.774 L 72.899 212.048 75.916 202.274 C 77.576 196.898, 79.819 189.928, 80.901 186.785 L 82.868 181.071 70.357 171.975 C 63.476 166.972, 57.318 162.712, 56.673 162.508 C 56.028 162.304, 50.325 165.949, 44 170.607 M 411.500 166.383 C 402.372 170.699, 397.044 179.034, 397.044 189 C 397.044 202.866, 408.147 213.980, 422 213.980 C 435.846 213.980, 446.937 202.883, 446.968 189 C 447.009 170.765, 427.945 158.609, 411.500 166.383 M 61.754 249.579 C 61.436 249.898, 61.863 252.176, 62.703 254.642 C 63.793 257.840, 64.651 258.964, 65.697 258.563 C 66.504 258.253, 67.324 258, 67.521 258 C 67.718 258, 67.189 255.975, 66.345 253.500 C 64.956 249.422, 63.314 248.020, 61.754 249.579 M 411.680 253.426 C 410.342 257.352, 410.341 257.917, 411.668 258.426 C 413.864 259.269, 413.819 259.312, 414.947 255.250 C 416.338 250.242, 416.268 249, 414.594 249 C 413.821 249, 412.509 250.992, 411.680 253.426 M 68.545 268.927 C 67.856 270.043, 69.934 278.010, 70.908 277.985 C 71.234 277.976, 72.068 277.609, 72.761 277.169 C 73.772 276.527, 73.756 275.598, 72.680 272.490 C 71.302 268.509, 69.672 267.104, 68.545 268.927 M 406.557 269.250 C 406.347 269.938, 405.722 271.928, 405.167 273.673 C 404.355 276.227, 404.451 276.959, 405.661 277.423 C 406.487 277.740, 407.281 278, 407.423 278 C 408.139 278, 410.010 269.825, 409.487 268.979 C 408.640 267.608, 407.011 267.759, 406.557 269.250 M 74.650 287.758 C 73.732 289.243, 76.176 297, 77.563 297 C 79.741 297, 80.047 295.438, 78.656 291.422 C 77.346 287.637, 75.671 286.105, 74.650 287.758 M 399.932 289.680 C 398.353 293.833, 398.340 296.500, 399.899 296.500 C 401.405 296.500, 404.334 289.349, 403.429 287.885 C 402.412 286.239, 400.955 286.987, 399.932 289.680 M 80.571 306.885 C 79.962 307.870, 81.789 313.967, 83.136 315.450 C 83.678 316.046, 84.401 315.999, 85.077 315.323 C 85.846 314.554, 85.801 313.068, 84.919 310.123 C 83.766 306.274, 81.836 304.838, 80.571 306.885 M 393.081 310.123 C 392.199 313.068, 392.154 314.554, 392.923 315.323 C 394.295 316.695, 395.386 315.520, 396.875 311.066 C 397.773 308.383, 397.748 307.458, 396.762 306.832 C 394.697 305.521, 394.373 305.811, 393.081 310.123 M 87.330 325.636 C 85.689 326.306, 88.720 335, 90.594 335 C 92.302 335, 92.347 333.890, 90.842 328.866 C 89.674 324.968, 89.456 324.768, 87.330 325.636 M 387.112 329.021 C 385.007 336.046, 387.967 337.479, 390.320 330.574 C 391.658 326.648, 391.659 326.083, 390.332 325.574 C 389.510 325.258, 388.719 325, 388.577 325 C 388.434 325, 387.775 326.809, 387.112 329.021 M 93.330 344.636 C 91.779 345.269, 94.667 354, 96.427 354 C 98.668 354, 98.844 352.898, 97.318 348.421 C 95.814 344.006, 95.531 343.737, 93.330 344.636 M 380.682 348.421 C 379.853 350.852, 379.436 353.102, 379.754 353.421 C 381.307 354.974, 382.953 353.588, 384.320 349.574 C 385.658 345.648, 385.659 345.083, 384.332 344.574 C 383.510 344.258, 382.691 344, 382.512 344 C 382.334 344, 381.510 345.989, 380.682 348.421 M 108 360.491 C 105.525 362.384, 103.050 363.894, 102.500 363.848 C 100.105 363.645, 99.204 364.112, 98.767 365.782 C 98.511 366.762, 90.639 373.110, 81.275 379.889 L 64.248 392.213 67.468 402.357 C 69.239 407.936, 73.522 421.163, 76.987 431.750 L 83.286 451 113.986 451 L 144.687 451 148.805 438.250 L 152.924 425.500 157.962 425.847 C 162.521 426.160, 163 425.994, 163 424.097 C 163 422.286, 162.401 422, 158.610 422 L 154.220 422 158.953 407.148 L 163.686 392.296 139.410 374.648 C 126.058 364.942, 114.541 357.011, 113.817 357.025 C 113.093 357.039, 110.475 358.599, 108 360.491 M 338.500 374.606 C 321.882 386.720, 314.602 392.598, 314.831 393.714 C 315.014 394.601, 317.098 401.328, 319.463 408.663 L 323.764 422 319.382 422 C 315.599 422, 315 422.287, 315 424.097 C 315 425.994, 315.479 426.160, 320.049 425.847 L 325.099 425.500 329.155 438.250 L 333.212 451 363.949 451 L 394.687 451 399.004 437.750 C 401.379 430.462, 405.658 417.250, 408.514 408.388 L 413.706 392.277 396.715 379.969 C 387.370 373.200, 379.509 366.838, 379.245 365.831 C 378.802 364.134, 377.717 363.550, 375.670 363.908 C 375.214 363.988, 372.679 362.466, 370.036 360.527 C 367.394 358.587, 364.617 357.025, 363.866 357.055 C 363.115 357.085, 351.700 364.983, 338.500 374.606 M 112.684 389.147 C 111.860 390.441, 106.660 399.375, 101.129 409 L 91.072 426.500 102.536 426.782 C 108.841 426.937, 119.179 426.937, 125.508 426.782 L 137.017 426.500 125.599 406.647 C 114.466 387.288, 114.144 386.852, 112.684 389.147 M 344 411 L 344 431 364 431 L 384 431 384 411 L 384 391 364 391 L 344 391 344 411 M 174 424 C 174 425.733, 174.667 426, 179 426 C 183.333 426, 184 425.733, 184 424 C 184 422.267, 183.333 422, 179 422 C 174.667 422, 174 422.267, 174 424 M 194 424 C 194 425.733, 194.667 426, 199 426 C 203.333 426, 204 425.733, 204 424 C 204 422.267, 203.333 422, 199 422 C 194.667 422, 194 422.267, 194 424 M 214 424 C 214 425.733, 214.667 426, 219 426 C 223.333 426, 224 425.733, 224 424 C 224 422.267, 223.333 422, 219 422 C 214.667 422, 214 422.267, 214 424 M 234 424 C 234 425.733, 234.667 426, 239 426 C 243.333 426, 244 425.733, 244 424 C 244 422.267, 243.333 422, 239 422 C 234.667 422, 234 422.267, 234 424 M 254 424 C 254 425.733, 254.667 426, 259 426 C 263.333 426, 264 425.733, 264 424 C 264 422.267, 263.333 422, 259 422 C 254.667 422, 254 422.267, 254 424 M 274 424 C 274 425.733, 274.667 426, 279 426 C 283.333 426, 284 425.733, 284 424 C 284 422.267, 283.333 422, 279 422 C 274.667 422, 274 422.267, 274 424 M 294 424 C 294 425.733, 294.667 426, 299 426 C 303.333 426, 304 425.733, 304 424 C 304 422.267, 303.333 422, 299 422 C 294.667 422, 294 422.267, 294 424" stroke="none" fill="#7049f8" fill-rule="evenodd"/></svg>
