<?xml version="1.0" encoding="UTF-8"?>
<svg width="98pt" height="88pt" version="1.1" viewBox="0 0 752 752" xmlns="http://www.w3.org/2000/svg">
 <path d="m374.38 568.39h3.2383l3.6992 14.801h-10.637zm134.81-266.39h74.008l-0.011719-44.398h-73.996zm16.426 29.598 3.6992-14.801-20.125 0.003907c-3.1797-0.003907-6.2734-1.0312-8.8242-2.9297-2.5508-1.8945-4.4258-4.5625-5.3438-7.6055l-67.227 53.84v23.293c-0.007812 3.9219-1.5664 7.6836-4.3398 10.457-2.7773 2.7734-6.5391 4.3359-10.461 4.3398h-8.6836l90.082 60.152v-23.152c0.003906-3.9219 1.5625-7.6836 4.3398-10.461 2.7734-2.7734 6.5352-4.332 10.457-4.3398h29.598v-73.996h-22.195v-14.801zm15.672 175.95-0.41797 1.6445h10.637l-3.6992-14.801h-3.2383zm-163.67-279.54h-3.2383l-3.6992 14.801h10.637zm-38.617-58.645v43.844h74.008l-0.011719-44.398h-73.996zm0 214.04h74.008l-0.011719-44.398h-73.996zm-116.32 111 3.6992 14.801 9.0195-0.003907v11.867l111 69.668v-7.5391h9.0273l3.6992-14.801-20.125 0.003906c-3.9258-0.007812-7.6875-1.5664-10.461-4.3398-2.7734-2.7773-4.3359-6.5352-4.3398-10.461v-44.398c0.003906-3.9219 1.5664-7.6836 4.3398-10.457 2.7734-2.7773 6.5352-4.3359 10.461-4.3398h29.598v-66.598h-22.199v-10.844l-88.797 59.578v3.0625c-0.003907 3.9219-1.5664 7.6836-4.3398 10.457-2.7734 2.7773-6.5352 4.3359-10.457 4.3438zm-9.4805-148v73.996h29.602c3.9219 0.007812 7.6836 1.5664 10.457 4.3398 2.7734 2.7773 4.3359 6.5391 4.3398 10.461v23.523l90.195-60.523h-8.7969c-3.9258-0.003907-7.6875-1.5664-10.461-4.3398-2.7734-2.7734-4.3359-6.5352-4.3398-10.457v-23.293l-67.227-53.844v0.003906c-0.91797 3.043-2.793 5.7109-5.3438 7.6055-2.5508 1.8984-5.6445 2.9258-8.8242 2.9297h-20.121l3.6992 14.801 9.0195-0.003907v14.801zm331.37-29.598-3.6992 14.801h10.637l-3.6992-14.801zm-116.77-103.6c-0.007812 3.9258-1.5664 7.6875-4.3398 10.461-2.7773 2.7734-6.5391 4.3359-10.461 4.3398h-20.117l3.6992 14.801h9.0195v14.801l-22.199-0.003906v66.598h29.598c3.9219 0.003906 7.6836 1.5664 10.461 4.3398 2.7734 2.7734 4.332 6.5352 4.3398 10.461v2.1562l66.598-53.332v-30.223c0.003906-3.9219 1.5625-7.6836 4.3398-10.457 2.7734-2.7773 6.5352-4.3359 10.457-4.3398h2.5625l-83.957-52.438zm-88.797 340.39h74.008l-0.011719-44.398h-73.996zm-96.188-251.59-0.007812-44.398h-74v44.398zm273.78 219.05v-11.859h9.0273l3.6992-14.801-20.129 0.003907c-3.9219-0.007813-7.6836-1.5664-10.457-4.3438-2.7773-2.7734-4.3359-6.5352-4.3398-10.457v-3.4609l-88.797-59.301v10.965h-22.199v66.598h29.598c3.9219 0.003906 7.6836 1.5625 10.461 4.3398 2.7734 2.7734 4.332 6.5352 4.3398 10.457v44.398c-0.007812 3.9258-1.5664 7.6836-4.3398 10.461-2.7773 2.7734-6.5391 4.332-10.461 4.3398h-20.117l3.6992 14.801 9.0195-0.003906v7.2344zm-142.21-122.86-3.6992 14.801h10.637l-3.6992-14.801zm-116.78-140.59v30.219l66.598 53.332v-2.1523c0.003906-3.9258 1.5664-7.6875 4.3398-10.461 2.7734-2.7734 6.5352-4.3359 10.461-4.3398h29.598v-66.598h-22.199v-14.797h9.0273l3.6992-14.801h-20.125c-3.9258-0.003906-7.6875-1.5664-10.461-4.3398-2.7734-2.7734-4.3359-6.5352-4.3398-10.461v-22.781l-83.809 52.383h2.4141c3.9219 0.003906 7.6836 1.5625 10.457 4.3398 2.7734 2.7734 4.3359 6.5352 4.3398 10.457zm251.59 221.99h74.008l-0.011719-44.398h-73.996zm-133.51 129.52 17.805-11.129h-35.527zm-132.87-129.52-0.007812-44.398h-74v44.398zm-42.328-148h10.637l-3.6992-14.801h-3.2383zm0 177.59h10.637l-3.6992-14.801h-3.2383z"/>
</svg>

