<?xml version="1.0" encoding="UTF-8"?>
<svg xmlns="http://www.w3.org/2000/svg" xmlns:xlink="http://www.w3.org/1999/xlink" width="88px" height="88px" viewBox="0 0 88 88" version="1.1">
<g id="surface1">
<path style=" stroke:none;fill-rule:nonzero;fill:rgb(0%,0%,0%);fill-opacity:1;" d="M 68.546875 39.710938 C 67.328125 39.710938 66.339844 40.699219 66.339844 41.917969 L 66.339844 54.390625 C 66.339844 55.609375 67.328125 56.597656 68.546875 56.597656 L 85.792969 56.597656 C 87.011719 56.597656 88 55.609375 88 54.390625 L 88 41.902344 C 88 40.679688 87.011719 39.691406 85.792969 39.691406 L 79.367188 39.691406 L 79.367188 31.367188 C 79.367188 30.148438 78.382812 29.160156 77.160156 29.160156 L 46.1875 29.160156 L 46.1875 22.71875 L 54.371094 22.71875 C 55.59375 22.71875 56.578125 21.730469 56.578125 20.511719 L 56.578125 4.46875 C 56.578125 3.246094 55.59375 2.261719 54.371094 2.261719 L 33.609375 2.261719 C 32.390625 2.261719 31.402344 3.246094 31.402344 4.46875 L 31.402344 20.546875 C 31.402344 21.765625 32.390625 22.753906 33.609375 22.753906 L 41.792969 22.753906 L 41.792969 29.195312 L 10.839844 29.195312 C 9.617188 29.195312 8.632812 30.183594 8.632812 31.402344 L 8.632812 39.730469 L 2.207031 39.730469 C 0.988281 39.730469 0 40.714844 0 41.9375 L 0 54.390625 C 0 55.609375 0.988281 56.597656 2.207031 56.597656 L 19.453125 56.597656 C 20.671875 56.597656 21.660156 55.609375 21.660156 54.390625 L 21.660156 41.902344 C 21.660156 40.679688 20.671875 39.691406 19.453125 39.691406 L 13.027344 39.691406 L 13.027344 33.574219 L 41.792969 33.574219 L 41.792969 39.691406 L 35.367188 39.691406 C 34.148438 39.691406 33.160156 40.679688 33.160156 41.902344 L 33.160156 54.390625 C 33.160156 55.609375 34.148438 56.597656 35.367188 56.597656 L 41.792969 56.597656 L 41.792969 61.675781 L 19.453125 61.675781 C 18.230469 61.675781 17.246094 62.664062 17.246094 63.882812 L 17.246094 71.113281 L 13.351562 71.113281 C 12.128906 71.113281 11.144531 72.101562 11.144531 73.320312 L 11.144531 83.53125 C 11.144531 84.753906 12.128906 85.738281 13.351562 85.738281 L 25.570312 85.738281 C 26.792969 85.738281 27.777344 84.753906 27.777344 83.53125 L 27.777344 73.320312 C 27.777344 72.101562 26.792969 71.113281 25.570312 71.113281 L 21.660156 71.113281 L 21.660156 66.054688 L 41.8125 66.054688 L 41.8125 70.84375 C 41.8125 70.933594 41.828125 71.007812 41.828125 71.097656 L 37.882812 71.097656 C 36.660156 71.097656 35.671875 72.082031 35.671875 73.304688 L 35.671875 83.515625 C 35.671875 84.734375 36.660156 85.722656 37.882812 85.722656 L 50.101562 85.722656 C 51.320312 85.722656 52.308594 84.734375 52.308594 83.515625 L 52.308594 73.304688 C 52.308594 72.082031 51.320312 71.097656 50.101562 71.097656 L 46.152344 71.097656 C 46.171875 71.007812 46.171875 70.933594 46.171875 70.84375 L 46.171875 66.054688 L 66.324219 66.054688 L 66.324219 71.097656 L 62.410156 71.097656 C 61.191406 71.097656 60.203125 72.082031 60.203125 73.304688 L 60.203125 83.515625 C 60.203125 84.734375 61.191406 85.722656 62.410156 85.722656 L 74.632812 85.722656 C 75.851562 85.722656 76.839844 84.734375 76.839844 83.515625 L 76.839844 73.304688 C 76.839844 72.082031 75.851562 71.097656 74.632812 71.097656 L 70.738281 71.097656 L 70.738281 63.863281 C 70.738281 62.644531 69.75 61.65625 68.53125 61.65625 L 46.1875 61.65625 L 46.1875 56.578125 L 52.613281 56.578125 C 53.832031 56.578125 54.820312 55.59375 54.820312 54.371094 L 54.820312 41.882812 C 54.820312 40.664062 53.832031 39.675781 52.613281 39.675781 L 46.1875 39.675781 L 46.1875 33.554688 L 74.953125 33.554688 L 74.953125 39.675781 L 68.546875 39.675781 Z M 35.816406 6.65625 L 52.183594 6.65625 L 52.183594 18.339844 L 35.816406 18.339844 Z M 17.261719 52.199219 L 4.394531 52.199219 L 4.394531 44.109375 L 17.261719 44.109375 Z M 23.382812 81.308594 L 15.539062 81.308594 L 15.539062 75.492188 L 23.363281 75.492188 L 23.363281 81.308594 Z M 47.910156 81.308594 L 40.089844 81.308594 L 40.089844 75.492188 L 47.910156 75.492188 Z M 72.460938 81.308594 L 64.636719 81.308594 L 64.636719 75.492188 L 72.460938 75.492188 Z M 50.425781 52.199219 L 37.574219 52.199219 L 37.574219 44.109375 L 50.425781 44.109375 Z M 83.605469 52.199219 L 70.738281 52.199219 L 70.738281 44.109375 L 83.585938 44.109375 L 83.585938 52.199219 Z M 83.605469 52.199219 "/>
</g>
</svg>
